# This file uses meters as units for non-parametric coordinates.

mtllib Oniscidea_obj_CollectableLog.mtl
g default
v -50.042151 184.682201 -420.955374
v -62.401551 130.532166 -420.955374
v -27.771306 87.107210 -420.955374
v 27.771301 87.107205 -420.955374
v 62.401551 130.532161 -420.955374
v 50.042165 184.682196 -420.955374
v 0.000000 208.781232 -420.955374
v -50.042151 184.682201 -208.463178
v -62.401551 130.532166 -208.463178
v -27.771306 87.107210 -208.463178
v 27.771301 87.107205 -208.463178
v 62.401551 130.532161 -208.463178
v 50.042165 184.682196 -208.463178
v 0.000000 208.781232 -208.463178
v 0.000000 144.774909 -420.955374
v -0.000000 144.774909 -208.463178
v 51.546728 185.786758 -213.177711
v 64.277712 130.008651 -213.177711
v 28.606271 85.278083 -213.177711
v -28.606276 85.278088 -213.177711
v -64.277712 130.008656 -213.177711
v -51.546713 185.786763 -213.177711
v 0.000000 210.610353 -213.177711
v 51.546728 185.786758 -417.729796
v 64.277712 130.008650 -417.729796
v 28.606271 85.278083 -417.729796
v -28.606276 85.278088 -417.729796
v -64.277712 130.008655 -417.729796
v -51.546713 185.786763 -417.729796
v 0.000000 210.610358 -417.729796
vt 0.597420 0.034089
vt 0.465231 0.003918
vt 0.359224 0.088456
vt 0.359224 0.224044
vt 0.465231 0.308582
vt 0.597420 0.278411
vt 0.656250 0.156250
vt 0.375000 0.312500
vt 0.410714 0.312500
vt 0.446429 0.312500
vt 0.482143 0.312500
vt 0.517857 0.312500
vt 0.553571 0.312500
vt 0.589286 0.312500
vt 0.625000 0.312500
vt 0.375000 0.688440
vt 0.410714 0.688440
vt 0.446429 0.688440
vt 0.482143 0.688440
vt 0.517857 0.688440
vt 0.553571 0.688440
vt 0.589286 0.688440
vt 0.625000 0.688440
vt 0.597420 0.721589
vt 0.465231 0.691418
vt 0.359224 0.775956
vt 0.359224 0.911544
vt 0.465231 0.996082
vt 0.597420 0.965911
vt 0.656250 0.843750
vt 0.500000 0.150000
vt 0.500000 0.837500
vt 0.553571 0.675110
vt 0.517857 0.675110
vt 0.482143 0.675110
vt 0.446429 0.675110
vt 0.410714 0.675110
vt 0.625000 0.675110
vt 0.375000 0.675110
vt 0.589286 0.675110
vt 0.553571 0.323196
vt 0.517857 0.323196
vt 0.482143 0.323196
vt 0.446429 0.323196
vt 0.410714 0.323196
vt 0.625000 0.323196
vt 0.375000 0.323196
vt 0.589286 0.323196
vn -0.861080 0.196536 -0.468950
vn -0.861080 0.196536 -0.468950
vn -0.974908 0.222517 -0.006366
vn -0.974906 0.222516 -0.006699
vn -0.683329 -0.544939 -0.485904
vn -0.683330 -0.544939 -0.485904
vn -0.781814 -0.623476 -0.006734
vn -0.781812 -0.623475 -0.007009
vn -0.000000 -0.869872 -0.493278
vn -0.000000 -0.869872 -0.493278
vn -0.000000 -0.999975 -0.007022
vn -0.000000 -0.999975 -0.007022
vn 0.683330 -0.544939 -0.485904
vn 0.683330 -0.544939 -0.485904
vn 0.781812 -0.623475 -0.007009
vn 0.781814 -0.623476 -0.006734
vn 0.861081 0.196536 -0.468950
vn 0.861081 0.196536 -0.468950
vn 0.974906 0.222516 -0.006699
vn 0.974908 0.222516 -0.006366
vn 0.386376 0.802319 -0.454970
vn 0.386376 0.802319 -0.454970
vn 0.433875 0.900951 -0.006333
vn 0.433875 0.900952 -0.006189
vn -0.386376 0.802319 -0.454969
vn -0.386376 0.802319 -0.454969
vn -0.433876 0.900952 -0.006189
vn -0.433875 0.900951 -0.006333
vn 0.000000 0.000000 -1.000000
vn 0.000000 0.000000 -1.000000
vn 0.000000 0.000000 -1.000000
vn 0.000000 0.000000 -1.000000
vn 0.000000 0.000000 -1.000000
vn -0.000000 0.000000 -1.000000
vn -0.000000 0.000000 -1.000000
vn 0.000000 0.000000 -1.000000
vn -0.000000 -0.000000 1.000000
vn -0.000000 -0.000000 1.000000
vn 0.000000 -0.000000 1.000000
vn -0.000000 -0.000000 1.000000
vn 0.000000 -0.000000 1.000000
vn 0.000000 -0.000000 1.000000
vn -0.000000 -0.000000 1.000000
vn -0.000000 -0.000000 1.000000
vn 0.974906 0.222516 0.006692
vn 0.974904 0.222515 0.006958
vn 0.916340 0.209148 0.341436
vn 0.916340 0.209148 0.341435
vn 0.781812 -0.623474 0.007051
vn 0.781811 -0.623473 0.007272
vn 0.730754 -0.582758 0.355516
vn 0.730754 -0.582757 0.355516
vn -0.000000 -0.999973 0.007312
vn -0.000000 -0.999973 0.007312
vn -0.000000 -0.932292 0.361707
vn -0.000000 -0.932292 0.361707
vn -0.781811 -0.623473 0.007272
vn -0.781812 -0.623474 0.007051
vn -0.730754 -0.582757 0.355516
vn -0.730754 -0.582757 0.355516
vn -0.974904 0.222516 0.006958
vn -0.974906 0.222516 0.006692
vn -0.916340 0.209149 0.341436
vn -0.916340 0.209149 0.341436
vn -0.433874 0.900949 0.006613
vn -0.433875 0.900950 0.006498
vn -0.409582 0.850506 0.329974
vn -0.409582 0.850506 0.329974
vn 0.433875 0.900950 0.006498
vn 0.433874 0.900949 0.006613
vn 0.409582 0.850505 0.329976
vn 0.409582 0.850505 0.329976
s 1
g pCylinder3
usemtl initialShadingGroup
f 1/8/1 2/9/2 28/45/3 29/47/4
s 2
f 2/9/5 3/10/6 27/44/7 28/45/8
s 3
f 3/10/9 4/11/10 26/43/11 27/44/12
s 4
f 4/11/13 5/12/14 25/42/15 26/43/16
s 5
f 5/12/17 6/13/18 24/41/19 25/42/20
s 6
f 6/13/21 7/14/22 30/48/23 24/41/24
s 7
f 7/14/25 1/15/26 29/46/27 30/48/28
s 8
f 2/2/29 1/1/30 15/31/31
f 3/3/32 2/2/29 15/31/31
f 4/4/33 3/3/32 15/31/31
f 5/5/34 4/4/33 15/31/31
f 6/6/35 5/5/34 15/31/31
f 7/7/36 6/6/35 15/31/31
f 1/1/30 7/7/36 15/31/31
s 9
f 8/29/37 9/28/38 16/32/39
f 9/28/38 10/27/40 16/32/39
f 10/27/40 11/26/41 16/32/39
f 11/26/41 12/25/42 16/32/39
f 12/25/42 13/24/43 16/32/39
f 13/24/43 14/30/44 16/32/39
f 14/30/44 8/29/37 16/32/39
s 5
f 18/34/45 17/33/46 13/21/47 12/20/48
s 4
f 19/35/49 18/34/50 12/20/51 11/19/52
s 3
f 20/36/53 19/35/54 11/19/55 10/18/56
s 2
f 21/37/57 20/36/58 10/18/59 9/17/60
s 1
f 22/39/61 21/37/62 9/17/63 8/16/64
s 7
f 23/40/65 22/38/66 8/23/67 14/22/68
s 6
f 17/33/69 23/40/70 14/22/71 13/21/72
s 5
f 25/42/20 24/41/19 17/33/46 18/34/45
s 4
f 26/43/16 25/42/15 18/34/50 19/35/49
s 3
f 27/44/12 26/43/11 19/35/54 20/36/53
s 2
f 28/45/8 27/44/7 20/36/58 21/37/57
s 1
f 29/47/4 28/45/3 21/37/62 22/39/61
s 7
f 30/48/28 29/46/27 22/38/66 23/40/65
s 6
f 24/41/24 30/48/23 23/40/70 17/33/69
